<svg class="svg-icon" style="width: 1em; height: 1em;vertical-align: middle;fill: currentColor;overflow: hidden;" viewBox="0 0 1024 1024" version="1.1" xmlns="http://www.w3.org/2000/svg"><path d="M864.065428 636.865869c-21.452591-63.718207-70.214155-111.649869-129.371486-134.494157l-50.67003-175.09383c-29.267581-101.136422-126.240169-165.272137-227.66107-157.709905l-1.157359-4.001127c-13.351076-46.134737-62.110593-72.928986-108.35687-59.546188l0 0c-46.240137 13.381775-73.155137 62.074777-59.805084 108.209514l1.157359 4.001127c-89.791026 47.771003-137.521097 153.782455-108.253516 254.917854l50.67003 175.09383c-37.81935 50.90846-53.446259 117.472482-37.551244 182.799326l83.461877-24.152073 0.162706 0.561795L780.766256 661.58076l-0.162706-0.561795L864.065428 636.865869 864.065428 636.865869 864.065428 636.865869 864.065428 636.865869z"  /><path d="M444.906929 923.019121l20.868283-6.039553c54.713113-15.832594 88.256066-70.25611 79.571267-125.037784l-219.641419 63.560618c21.912056 50.953486 79.339999 79.050404 134.043902 63.219857L444.906929 923.019121 444.906929 923.019121 444.906929 923.019121z"  /><path d="M554.844807 891.204531"  /></svg>